<svg xmlns="http://www.w3.org/2000/svg" height="84" viewBox="0 0 100 84" width="100">
    <path d="m99.7876448 40.5328185c-.4993565-2.4942085-1.6164736-4.7207207-2.5341055-6.3809523-2.5662806-4.6525097-5.2509653-9.1467182-8.4942085-14.4633205-1.6666667-2.7361647-3.6872587-3.9253539-6.3603604-3.7400258 0-.1454311.0875161-.2471042.2265122-.4015444l.0978121-.1093951c3.2985843-3.9253539 3.6267697-8.12998709.972973-12.49935646-1.1994852-1.97683398-3.1312741-2.93822394-5.9034749-2.93822394h-.1287001c-2.5740026.02702703-3.7953668 1.89189189-4.4916345 3.29214929-1.9137709 3.86100386-1.2136422 8.44401541 1.7902188 11.65894471.2702702.2895752.5508365.5727155.8352638.8584298l.2355212.2380952c-.5958816.2574003-1.1583011.3140284-1.7503217.3693694l-.0875161.009009c-1.5160875.1480052-2.6833977.8236808-3.5649936 2.0592021-1.4633204 2.052767-2.5611325 4.007722-3.3629343 5.976834-.970399 2.3886744-1.953239 4.7717717-2.94852 7.1492921-.4813385 1.1583012-.9626769 2.3166023-1.4478764 3.4864865-.0785071.1917632-.1287002.3037323-.3294724.3500643-.2453882-.4195624-.4916344-.8434148-.7387387-1.2715572-.8391248-1.4465895-1.7052767-2.942085-2.6396396-4.3835264-2.4453025-3.7683398-2.5662806-3.966538-6.8120978-4.5868726.0442479-.097485.1077209-.1850338.1866151-.2574003l.0643501-.070785c3.2870013-3.7258687 3.6898327-7.8700129 1.1994852-12.3178893-1.1891892-2.1222652-3.1776062-3.16731021-6.0862291-3.19433723h-.054054c-2.6332047 0-3.8738739 1.93050193-4.5804376 3.37837833-1.8494209 3.8146719-1.1583012 8.3256114 1.7683397 11.4916345.3122928.325182.6459384.6291607.998713.9099099l.2496783.2097813c-.6138996.2960103-1.1866152.3552123-1.7863578.4182754l-.2574002.028314c-1.4543115.1634492-2.5740026.8082368-3.4092665 1.971686-1.5727155 2.1814672-2.6705276 4.1351351-3.4568854 6.1480051-.0489061.1287002-.0926641.2574003-.1364221.3861004-.1287002.3976834-.2638353.7722008-.5662806 1.1196911l-.2200772-.3861004c-.2985843-.5225225-.5740026-1.006435-.8584299-1.4839124-2.5525525-4.3020163-5.1085371-8.6036036-7.6679537-12.9047619-1.5238095-2.5624196-3.5045045-3.7323038-6.078507-3.5199486-.1145432.010296-.1364222-.011583-.1364222-.011583-.0064143-.0155289-.0099049-.0321091-.010296-.048906l.0437581-.0694981c.057556-.1025926.123413-.2003019.1969112-.2921493 3.2393822-3.8416988 3.6679536-7.41698841 1.4362934-11.95881595-1.0527671-2.14285714-2.8507079-3.27799228-5.6628057-3.57271557-2.1196911-.21879022-3.7657657.66537966-4.8803089 2.64092664-1.7915057 3.16859717-1.9034749 6.43500648-.3359073 9.72972968.679031 1.4131467 1.6684706 2.6546756 2.8944659 3.6319177-.5933076.3063063-1.1801802.3552123-1.7528957.4015444-1.6229087.1287001-2.8468469.8262548-3.74131279 2.1274131-1.13899614 1.6499357-2.3037323 3.4517375-3.11583011 5.4414415-.56113257 1.3719433-1.13513514 2.7387387-1.71042471 4.1042471-.65894466 1.5688545-1.31788932 3.1377091-1.95752896 4.7155727l-.17503218.4324324c-.92921493 2.2908623-1.88931789 4.6589447-2.53281853 7.1068211-.35392535 1.3526384-.28056628 2.6229086.21750322 3.7747748.35135135.8108108.9009009 1.3629343 1.58301158 1.5945946.68211068.2316602 1.47490348.1287001 2.26126126-.3153153.94337195-.5250966 1.7027027-1.3384814 2.31660232-2.4813385.92859843-1.7232089 1.7679735-3.4930274 2.51480051-5.3024453.45945946-1.1003861.93564989-2.1879022 1.45173749-3.3783784l.3333333-.7722008c.00768.8118413-.0353036 1.6233708-.1287001 2.4298585-.2651223 2.4453024-.4530245 4.4169884-.5958816 6.2110682-.35392538 4.4491634-.3719434 8.979408-.38610041 13.3603603v.6885457c-.01930502 4.0592021 0 8.3809524.35135131 12.6846847.1184042 1.4157014.3861004 2.8918919 1.5057915 4.0733591 1.4066925 1.4723295 3.1853282 1.2265122 4.3989704.9150579 1.3822394-.3552124 1.5585586-1.6628057 1.7207208-2.8622909.4478764-3.3037323.3191763-6.6023166.1287001-9.9716859-.1840412-3.3384814.029601-6.6383527.2882883-9.7065637l.015444-.2123553c.052767-.7323037.1016731-1.4259974.8365508-1.7207207.4543115.8404119.4517375.8648649.4247105 1.930502-.1423455 5.9263914.1190917 11.8555973.7824967 17.7464607.1441442 1.3178893.4478765 2.3462033.952381 3.2380952.8262548 1.4646075 2.9343629 2.3925354 4.5958816 2.0154441 1.4710425-.3294724 2.3886744-1.6550837 2.5135135-3.6383527.010296-.1943372.014157-.3861004.018018-.5855856 0-.1287001 0-.2574002.010296-.3951094.2316603-6.6164736-.3178893-13.1788931-1.005148-20.4633204-.2342342-2.4967825-.3423423-5.0437581-.4453024-7.5057915-.1132561-2.6396397-.2290862-5.3693694-.5019305-8.0476191-.0366849-.4709882-.0439921-.9438045-.021879-1.4157014 0-.1106821 0-.2213642.009009-.3320463.0737839.0877349.1328912.1868266.1750321.2934363.0296011.063063.0592021.1287001.0900901.1827541.3938224.6988417.7722008 1.4028314 1.1583012 2.1081082 1.4015444 2.5740025 2.8532818 5.2252252 4.6988417 7.5933075.4517374.5778636.3861004 1.1132562.1415701 1.7927928-.1287001.3693694-.2741312.7361648-.4131274 1.1042471-.4285714 1.1351352-.8751609 2.3101674-1.1583011 3.5263836-.3204634 1.3320463-.2792793 2.5032175.1287001 3.5791505.3552123.938224.9356499 1.5675676 1.6731017 1.8211069.7374517.2535392 1.5611325.1132561 2.3963964-.3938224.9294176-.5717498 1.6763809-1.3968473 2.1531531-2.3783784.9009009-1.8133848 1.6267696-3.3243243 2.2754183-4.7528958.5546975-1.2265122 1.0926641-2.4890604 1.6640926-3.8262548.1295582-.3028743.2616903-.6117546.3963964-.9266409 0 .2574002 0 .4736165-.015444.6782497-.0862291.9601029-.1801802 1.9189189-.2728442 2.8764478-.1557272 1.6010296-.3166024 3.2561133-.4375805 4.8906049-.4285714 5.8481339-.4453024 11.7117117-.3989704 17.1724582l.009009 1.2213642c.019305 2.8635779.0386101 5.8249679.3449164 8.7323038.1287001 1.1943372.3577863 2.4517374 1.2020592 3.5675675 1.2702702 1.6808237 3.048906 1.5894466 4.4594594 1.3256114 1.6061776-.3037323 1.7876448-1.7065638 1.947233-2.942085l.019305-.1454311c.4555985-3.4234235.2715573-6.9009009.1093951-9.970399-.1840412-3.5186615.0733591-7.034749.3191763-9.7052767l.014157-.1557272c.0579151-.6795366.1171172-1.3809523.8507079-1.6473616.5148005.3963964.4646075.9009009.4118404 1.4813385-.014157.1467181-.02574.2921493-.029601.4324324-.1306723 5.9265015.1337489 11.8551238.7915058 17.7464607.1287001 1.0952381.3796653 2.5122266 1.2689832 3.7503218.6975547.971686 2.2033462 1.6229086 3.5289576 1.6229086.3108658.0026153.6205795-.0381023.9202059-.1209781 1.3114543-.3732304 2.1879022-1.6293436 2.3333333-3.3577864.0360361-.3976834.0386101-.7992278.0398971-1.2316602.019305-4.6628057.03861-9.4826255-.5148006-14.1981982-.1287001-1.1364221-.1866151-2.2972973-.2393822-3.4195624-.048906-1.043758-.0990991-2.1235521-.2136422-3.1866152-.0476191-.4491634-.0978121-.9009009-.1480052-1.3487773-.2702702-2.4054054-.5495495-4.8906049-.4903474-7.3590734.0306184-1.6340245-.0528102-3.2681942-.2496783-4.8906049-.0926641-.7979408-.0733591-1.6177606-.050193-2.5662806 0-.2110682.011583-.4285714.015444-.6537966l.3552123.6435006c.5238095.94852.975547 1.7657658 1.4157014 2.5894466 1.1002249 2.0764724 2.3237779 4.0852139 3.6640927 6.015444.6164736.8803089 1.3925354 1.8751609 2.4774775 2.5740026s2.6293436.6782497 3.5598455-.0759331c1.0180181-.8301158 1.3603604-1.8622908 1.0424711-3.1570141-.4769075-1.9082714-1.1780547-3.7533728-2.0888031-5.4967825-.3861004-.7490348-.3861004-1.3024453-.011583-1.971686 1.029601-1.8314028 1.8339768-3.7323037 2.6344916-5.6782497.3680824-.8918919.7593308-1.7631917 1.2110682-2.7722007.0913771-.1969112.1814672-.4002574.2741313-.6074646 0 .061776 0 .1184041-.009009.1737451-.2419562 2.8734449-.4890605 5.7473188-.7413127 8.6216216l-.0115831.1209782c-.2960103 3.3848134-.3204633 6.8301158-.3449163 10.1673101-.005148.9060489-.013299 1.8120978-.024453 2.7181468-.0682111 5.2664092.043758 9.6061776.3500643 13.6589446.0888031 1.1763192.3294724 2.6833977 1.4066924 3.9086229 1.3217504 1.5032175 3.1248392 1.3268983 4.3629344 1.0630631 1.4890605-.3166023 1.6731017-1.6563707 1.8391248-2.8378379l.0193051-.1287001c.2277992-1.6332046.3063063-3.3848134.2574002-5.6795367-.018018-.7653367-.03861-1.5311025-.0617761-2.2972973-.060489-2.1879021-.1287001-4.4440154-.0990991-6.6615186.0193051-1.8532819.0733591-3.8262548.4826255-5.7696268.016731-.0720721.0296011-.1480051.0424711-.2252252.0990991-.5611326.1840412-.9009009.6936937-.9009009h.073359c.4272845.4092664.3783784.9343629.3256114 1.4903475-.014157.1608751-.0296011.3204633-.0321751.4761905-.1264201 5.9262922.1414382 11.8544317.8018018 17.7451737.1531532 1.3925354.4980695 2.4736165 1.0875161 3.4028314.8442729 1.3294723 2.952381 2.1583012 4.5212355 1.7696268 1.3963964-.3449164 2.3063064-1.6486487 2.4375805-3.4877735.030888-.4478765.032175-.9009009.034749-1.3397684 0-.2072072 0-.4144144 0-.6216216.1287001-6.2046332-.4169884-12.4710425-.9382239-18.5328185l-.2084942-2.5045045c-.0437581-.4967825-.0892321-.993994-.1364222-1.4916345-.1184041-1.2870013-.2419562-2.6229086-.2895753-3.9330759-.027027-.7722008-.03861-1.5341056-.048906-2.3011583-.021879-1.7413128-.0450451-3.5431146-.2870013-5.3153154-.0965251-.6949807-.0720721-1.4066924-.045045-2.1608751 0-.2020592.01287-.4054054.018018-.6113256.1557375.1930756.282748.4076496.3770914.6370656.055341.1171171.1093951.2329472.1711711.3423423.3449164.6126127.6833977 1.2290863 1.0231661 1.8455599 1.1467181 2.0862291 2.3346203 4.2471042 3.7323037 6.2355212.6640926.938224 1.4157014 1.9073359 2.3938224 2.6435007 1.1209781.8391248 2.6537966.9009009 3.7323037.1634491 1.0437581-.7168597 1.3822393-1.7670527 1.0772201-3.3024453zm-43.3307593-2.994852c-1.1364222.2239383-1.0888031 1.1969112-1.0566281 1.9060489.007722.1415702.014157.2792793.01287.4092665-.060489 4.7104247.2767053 9.4864864.6036036 14.1055341l.1042471 1.4800514c.1415702 2.0167311.3037323 4.0334621.4633205 6.0489061.4427284 5.5225225.9009009 11.2342342.9163449 16.8725869 0 .9601029-.0540541 1.9678249-.7413127 2.8030888-.5598456.6782496-1.2226513.9227799-2.0257401.7722007-1.007722-.1994852-1.3513513-.9485199-1.4620334-1.5444015-.1765608-.9483434-.3015833-1.9055607-.3745174-2.8674389-.3474904-4.6731016-.4826255-9.7438867-.4311454-15.9588159.009009-.8931789-.0308881-1.8468469-.3861004-2.7709138-.3178893-.8378378-.9009009-1.3796654-1.5984556-1.4877735-.0851714-.0130846-.17123-.0195389-.2574003-.019305-.6087516 0-1.2136422.3333333-1.6936937.9395109-.6731016.8507079-1.07722 1.9176319-1.2689832 3.3577864-.4967825 3.7323037-.5637066 7.1776062-.2020592 10.5534105.2689832 2.5238096.1969112 5.0553411.1029601 6.979408-.0501931 1.0450451-.3178894 1.7657658-.7940798 2.1441442-.4298585.3423423-1.0489061.4311454-1.8790219.2857142-1.0720721-.1917631-1.6731017-.8275418-1.7734878-1.8906048-.0518909-.6756363-.0690735-1.3534905-.05148-2.0308881l.032175-3.8211068c.0592021-7.2754183.1209781-14.8005148.4851995-22.1866152.0733591-1.4787645.2123552-2.979408.3487773-4.4324324.1788932-1.9189189.3655084-3.9047619.3989704-5.8738739.009009-.5148005-.006435-1.029601-.021879-1.5444015l-.01287-.4169884c-.016731-.5894466-.3256113-.997426-.9163449-1.2123553-.7889318-.2870012-1.1788932.3397684-1.3732304.6435007-.2752883.4521967-.5141382.9255927-.7142857 1.4157014-.9223509 2.1389961-1.8421279 4.2809953-2.7593308 6.4259974l-.7027027 1.6344917c-.6190476 1.4388674-1.4041184 3.1029601-2.5263835 4.5353925l-.0656371.0849421c-.4568854.5920206-.8030888.9639639-1.4401544.7490347-.7438867-.2509652-.8288288-.8339768-.8738739-1.6949807-.0990991-1.8635778.6602317-3.4826255 1.3925354-5.047619.2110682-.4491635.4221364-.9009009.6100386-1.3487774.5148005-.4658944 1.5083655-2.9305019 2.943372-6.5637065.6138996-1.5585586 1.1943372-3.0321751 1.5096525-3.6821107.7541827-1.5444016 1.3951094-3.1788932 2.015444-4.7554698.1552981-.3981124.3118833-.7945088.4697555-1.1891892.4954955-1.2458172 1.2483912-1.8494208 2.5186615-2.018018 1.1879022-.1570141 2.3938224-.1660231 3.5611325-.1737451l.6846847-.0064351c.936937-.011583 1.8687259 0 2.8056628.0064351 1.0630631.010296 2.1634492.021879 3.2432433 0h.0759331c.9755469 0 1.5765765.3680823 2.068211 1.2574002 1.4543115 2.6319176 2.960103 5.2149292 4.7619048 8.2805663l.1673102.2792793c4.2393822 7.1917632 6.7773487 11.7220077 7.1428571 12.7593307.4182754 1.1840412.2882883 1.8841699-.4375804 2.3449164-.7039897.4414414-1.5907336.2664092-2.3758044-.4723295-.7798837-.7535026-1.4361528-1.6251983-1.944659-2.5830116l-1.2638352-2.2934363c-1.3719434-2.4954955-2.7927928-5.074646-4.2149292-7.5933076-.0669241-.1209781-.1287002-.2574002-.1930502-.3963964-.2651223-.5894466-.6293437-1.3796653-1.6061776-1.1981982zm-11.915058-18.060489c-.4066924-3.3011583.5032175-5.8841699 2.7027027-7.6808237.6679537-.5444015 1.3693694-.8249678 2.0592021-.8249678.15591-.0002588.3114874.0143939.4646075.043758.8635778.1621622 1.6422136.7927928 2.1994852 1.7760618.8326898 1.4800515 1.1583011 2.7027027 1.06435 3.9549549-.0917343 1.9305739-.3938219 3.8453775-.9009009 5.7104248-.3166023 1.1467181-.9009009 1.9305019-1.6949807 2.2535392-.8236808.3423424-1.8481338.1879022-2.9601029-.4414414-1.6808237-.940798-2.6666667-2.5559846-2.934363-4.7915058z"/>
</svg>