<svg xmlns="http://www.w3.org/2000/svg" viewBox="0 0 733.23 877"><g transform="translate(-133.38 -61.5)"><path d="m163 522.15a315.91 315.91 0 0 0 5.1 58.75c17 89.59 82.3 165.85 163.19 208 5.53 2.89 14.52 11.63 10.47 18.88-4.59 8.22-21.68-3.17-27.77-5.93-65-29.42-117.57-83.92-148-148.45s-39.09-138.52-28.06-209c26-166.21 160.73-301 329.57-313.56 33.5-2.49 34.48-7.32 4.83-24.17-4.23-2.44-8.7-4.66-12.42-7.74-6.6-5.47-52.6-39.24-21.44-37.31 26.64 1.65 50.11 17.48 71.22 33.82 8.33 6.44 41.32 26 41.62 37.11.31 11.44-32.44 30-39.8 36.37a573.79 573.79 0 0 0 -53.73 53.29c-3.44 3.9-7 8-11.81 10-30.12 12.56-10.6-32.77-2.78-40.88l25.47-26.38c17.3-17.94-21.8-7.68-28.19-6.2a386.45 386.45 0 0 0 -49.47 15 367.51 367.51 0 0 0 -92.27 51.05c-55 41.95-96.61 100-117.14 166.21-9.92 32-15.08 65.27-17.35 98.66-.78 10.8-1.24 21.65-1.24 32.48z"/><path d="m495.34 875.14a57.2 57.2 0 0 0 -6.61-4c-7.64-3.95-17.41-7.39-19.15-15.81-1.36-6.59 3.14-12.82 7.5-18a446.48 446.48 0 0 1 67.6-64.57c5.53-4.26 13.48-8.42 18.9-4 6.43 5.22 1.52 15.5-3.76 21.88q-19.14 23.16-40.16 44.67c11.42 1.67 23.35 3.31 34.92 1.83 10.26-1.3 21.67-2 31.58-5.15 21.6-6.86 43.14-15.38 63-26.24 42.7-23.29 79.26-57.33 107.41-96.85 38.76-54.44 62-118.86 73.82-184.64 18.15-101.45-15.79-168.7-82.33-243l-67.06-74.84c-8-9-16.62-21.28-11.15-32 63.28 38.49 128.75 113.27 165.41 176.88 59.93 104 25.47 243.77-33.1 340.68-56.09 92.81-149.43 163.65-260.77 167.18-7.37.23-17.16 2.34-17.47 9.71-.2 4.7 4 8.26 7.64 11.18a189.49 189.49 0 0 1 36.12 38.06c3.68 5.15 7.07 12.4 3.11 17.34s-12.08 3.11-17.6-.18c-23.99-14.27-35.32-44.38-57.85-60.13z"/><path d="m400.93 627.41-.08-.1a137.25 137.25 0 0 1 -63 47.84 6.18 6.18 0 0 1 -2.72.54 5.15 5.15 0 0 1 -3.36-2.32c-7.61-10.23 1.68-17.47 10-22.25 16.17-9.32 31.13-20.93 43.23-35.12 3.43-4 11.42-15.92.43-14-16.89 3-35.09 3.11-50.28-4.86-15.54-8.15-26-23.93-31.23-40.68-6.09-19.53-7-41.34-4.26-61.47a230.48 230.48 0 0 1 10.34-43.16c1.36-4 4.06-17 7.51-19.24 3.77-2.51 9.79 2.27 11.39 5.77s1.83 7.46 2.32 11.29c1.68 13.11 6.93 26.05 16.39 35.29a43.4 43.4 0 0 0 18.62 10.75c2.44.68 20 3.6 18.72-1.62-.43-1.75-2.28-2.67-3.91-3.42a83.19 83.19 0 0 1 -43.48-48.65c-4.8-14.44-3.76-27.63 6.65-39 12.18-16.5 30.91-28.81 41.51-46.41 6.19-10.26 7.45 6 7.68 10.28l1.47 26.13c.36 6.51.73 13.08 2.41 19.38 1.78 6.69 5.06 13.88 11.48 16.92 5.1 2.41 9.9 1.81 6.14-4.68-8.44-14.59-14-31.18-13.72-48s6.73-33.94 19.25-45.22c8.92-8 20.14-12.66 30.67-18.13 2.39-1.24 19.46-13.8 20.23-6.38 1.29 12.57-6.4 24.28-7.94 36.82s2.29 29.55 10 39.81a2 2 0 0 0 3.36-.63 16.29 16.29 0 0 0 .77-4.21c.6-16.76-3.82-33.21-1.57-50 1.62-12.05 6.3-23.91 14.62-32.76 20.5-21.8 53.84-19.64 81.15-19.06 12 .25 24.33-.16 36-3.44a56.08 56.08 0 0 0 16.9-7.59c4.53-3.18 6-9 10.56-11.89 11.27-7 1.62 17.32.85 19.28-4.8 12.11-8.48 25.44-5.21 38.43 2.74 10.88 10 20 16.4 29.16s12.42 19.56 12.07 30.78c-.32 10-5.84 19.37-13.15 26.27a78.5 78.5 0 0 1 -15.67 11.14c-.88.5-14.65 8.74-14.37 8.88 5.44 2.73 17.47-3.43 22.5-6.29a54.47 54.47 0 0 0 19.28-18.37c2.59-4.15 4.62-8.65 7.44-12.65 1.55-2.19 3.61-4.37 6.29-4.62 8.32-.75 13.07 44.33 12.68 51.45-1.15 21-16.87 38.91-35.48 48.64-11 5.79-23.14 9.21-35.32 11.62-10.9 2.16-22.47 2.31-32.55 7.25-6.39 3.13-3.37 6.51 3 6.23 32.37-1.43 71.33-15.13 92.37-41a2 2 0 0 1 .83-.68c.66-.19 1.53-.55 2-.29.86.48 2.06 1.3 2.14 2.08 1.88 17.34 5.36 36 0 53.19-7 22.84-28.15 39.14-50.84 46.65-23.38 7.74-48 7.1-72.31 8-2.42.1-5.5.72-5.93 3.11a160.83 160.83 0 0 0 96-2.63c6.75-2.34 13.93-5.67 16.89-12.17.49-1.07.92-2.28 2-2.83 1.46-.76 3.34.37 4 1.89 2.61 6.25-.44 18.14-2.08 24.48-5 19.38-15.56 38-32.3 49-18.71 12.26-44.2 14.68-58.19 32.13-8.89 11.1-11.19 26.53-21.92 36.28s-26 12.08-40.26 11.3c-25.23-1.37-49.45-11.43-70.34-25.65-10.13-6.88-19.67-14.91-27.28-24.57-7.72-9.81-10.32-22.32-17.79-32.02zm269.36-228.93c-1.78-.33-2.57.95-3.2 2.18-9.17 18-32 27.88-50.73 32-5.3 1.16-28.17.51-24.28-10.42 1.07-3 4.53-8.31 6.48-9.76 10.88-8.08 22.44-13.8 33.77-21.1 8.87-5.71 16.8-15.3 15.24-25.73-1.86-12.41-13.82-23.74-20.26-34.07-4.88-7.82-9-16.59-9.83-25.9-.38-4.53 2.91-18.45-3.1-20.47-2.44-.81-5.08 0-7.56.73-34.56 9.93-106.66-10.62-119.58 38-2.1 7.93-1.23 16.31-.67 24.5a314.07 314.07 0 0 1 .43 35.65c-.29 6.45-1.23 13.74-6.43 17.57a7.89 7.89 0 0 1 -4.86 1.69 9.17 9.17 0 0 1 -4.3-1.44c-7.11-4.17-10.72-12.39-13-20.31a114.76 114.76 0 0 1 -3.57-46.6c1.15-8.92 2.37-13.23-7.3-7.7-9 5.16-20.38 9.31-26.63 18.05-3.45 4.82-5.06 10.68-6.36 16.46-1.8 8-3.15 16.21-2.11 24.32 2.15 16.77 14.21 31.32 14.92 48.2.84 19.94-24.23 6.91-30.82-1.53-5.44-7-8.38-15.62-10.08-24.31a101 101 0 0 1 -1.67-25.8c.37-5.77-2.37-6.91-5.64-1.68-5.59 8.94-13.18 15.57-20.88 22.6-11.11 10.13-15.55 22.25-10.58 37 4.1 12.21 12.64 22.31 22.6 30.25 10.29 8.2 21.32 12.7 28.72 24.2 1.72 2.67 4 6.26 1.41 9.06-1.5 1.61-4.95 1.49-6.88 2-5.05 1.35-9.58 3.08-14.9 3.33-14.19.67-28.06-6.35-37.74-16.75s-15.55-23.86-19-37.63c0 0-3.95 6-4.24 6.91-1 3.14-1.11 6.86-1.66 10.11-1.33 8-2.53 15.95-3.35 24-1.65 16.3-1.74 32.91 1.85 49a110.45 110.45 0 0 0 10.12 27.41c2.2 4.17 4.77 8.3 8.53 11.16a29.25 29.25 0 0 0 10.39 4.67c12.89 3.42 26.52 2.5 39.76.92 11-1.32 21.49.13 23.94 12.86 1.52 7.9 1.8 13.39 6.42 20.47 11.1 17.06 22.63 34.55 39.36 46.13a127.39 127.39 0 0 0 20.41 11c17 7.64 35.19 13.88 53.87 13.8 8.2 0 16.74-1.44 23.34-6.31 12.11-8.94 14-26.23 22.66-38.54 17.74-25.15 58.8-23.89 76.7-48.94 1.83-2.56 12.38-22.64 6.81-23.92a4.53 4.53 0 0 0 -2.7.52 144.48 144.48 0 0 1 -96.25 4.79c-3.37-1-6.78-2.2-9.5-4.43s-4.66-5.72-4.16-9.2c1.41-9.67 19.89-7.46 26.55-7.93 12.51-.87 25.06-1.82 37.39-4.23 18.3-3.56 36.47-10.63 49.78-23.69a58.64 58.64 0 0 0 16.65-30.51c.9-4.76 2.18-12.65.09-17.26-2.93-6.45-9 .48-12.23 2.81a121.93 121.93 0 0 1 -58.13 22.19c-8.37.92-50.32 1.65-35.28-16.79 2.77-3.4 7.06-5.11 11.2-6.54 19-6.53 39.18-9.78 57.83-17.39 14.17-5.79 28.12-15 33.83-29.19 2.81-7 3.34-14.64 2.64-22.09-.21-2.13-1.52-17.86-4.23-18.38z"/><path d="m441.07 561.89a1.12 1.12 0 0 0 -.46-.08c-1.83.11-3.68 4.08-4.53 5.31-4.48 6.44-25.56 45.28-30.92 51-3.64 3.92-12.26-4.6-10.69-12a15.48 15.48 0 0 1 2.94-5.62c4-5.6 25-34.51 28.95-40.14.32-.45.1-1.34 0-2-.37-2.69-30.4-2.67-34.33-3-12.44-1.06-29.24-2.22-36.25-14-.23-.38.25-1.25.54-1.83a1.16 1.16 0 0 1 .91-.47 10.21 10.21 0 0 1 3.15.42c22.75 9.45 47.83 4.65 71.35 9.79a11.55 11.55 0 0 0 2.59-.1c2.23-2.35 4.78-4.87 7.12-7.57s4.51-5.59 6.72-8.43q4.63-6 9.19-12c3.14-4.18-7.12-5.42-8.9-6.09a44.68 44.68 0 0 1 -13.6-8.54c-5.87-5.17-10.81-11.3-16.3-16.87a181 181 0 0 0 -15.24-13.52c-4.34-3.51-9.68-6.67-10.7-12.64-.09-.57.41-1.3.77-1.88.1-.16.64-.11 1-.07a2.69 2.69 0 0 1 1 .25c12.32 6.45 25.42 14.89 34.58 25.51a87.32 87.32 0 0 0 13.86 13.52c5.54 4.08 12 6.41 18.37 8.82a3.43 3.43 0 0 0 3.83-1.27c3.2-4.36 6.44-8.68 9.56-13.09 2.27-3.21 4.39-6.52 6.63-9.87a18.74 18.74 0 0 0 -1.77-2.87c-9.51-10.38-18.74-20.34-25.62-32.76a123.74 123.74 0 0 1 -8.82-19.88c-1.33-3.92-7.07-17.5-3.25-20.16 3-2.11 11.74 19.17 12.83 21.46a149.82 149.82 0 0 0 14.78 24.46c2.83 3.86 5.82 7.59 8.93 11.23 1.71 2 4.84 7.74 7.75 7.92 2.15.13 3.43-3 4.53-4.54q3.74-5.35 7.35-10.78 7.64-11.47 14.75-23.3c4.32-7.18 7.87-15.19 12.56-22.1 1.86-3.87 3.74-7.8 7.2-10.58 5 1.29 1.78 9.3.6 12.52a146.76 146.76 0 0 1 -9 19.85c-1.7 3.15-9.22 11.38-2.18 12.43 13.81 2.1 27.68 4.16 41.66 4.62s26.93-1.75 40.57-4.7c1.32-.29 2.33.24 2.57 1.14 1.77 6.64-19.31 10.94-23.5 11.61-8.06 1.29-16.27 1.26-24.43 1a200.2 200.2 0 0 1 -29-2.56c-7.81-1.39-15.93-5.23-21.31 2.82-3.58 5.35-7 10.8-10.53 16.2l-21.39 32.92a4.89 4.89 0 0 0 -1.05 2.7c.08 2.21 2.81 3.14 5 3.47q41.22 6.33 82.83 9.52c8.21.63 16.56 1.16 24.59-.66a9.52 9.52 0 0 1 3.88-.37 2.81 2.81 0 0 1 2.41 2.66c-.1 1.25-1.28 2.09-2.37 2.69a33.08 33.08 0 0 1 -14.44 4c-6.52.27-13-1.4-19.53-1.29-4.86.09-9.64 1.16-14.48 1.59-7.23.64-14.51-.17-21.7-1.11q-15.37-2-30.63-4.75c-6.25-1.12-12.53-2.36-18.4-4.78-6.21-2.55-9.38 5.63-12.56 9.84l-13.04 17.39a3.85 3.85 0 0 0 -.28 5.47c8.95 14.93 16.85 31.09 30.17 42.81 11.88 10.44 26.92 16.51 41.92 21.52a6.38 6.38 0 0 1 3 1.64c1.83 2.12-.9 4.81-2.84 5.54-3.69 1.37-7.81.14-11.48-1.31-15.63-6.22-32.26-14.74-43.22-27.83-6.63-7.91-11-17.32-16.09-26.21-1.18-1.91-5.52-11.08-8.11-12.02z"/></g></svg>