<svg viewBox="0 0 717.91 687.48" xmlns="http://www.w3.org/2000/svg"><g transform="translate(-141.05 -156.26)"><path d="m335.64 369.52c-12.49-16.07-24.66-32.29-30.35-52.35-8.51-30-1.28-55.64 20.9-77.34 3-2.93 7.94-4.61 7.33-11.88-2.21-.66-4-1.59-5.91-1.71-20-1.31-37.49 11.59-44.77 34.12s-6.41 45 3.24 66.69c10.22 23 26.62 41.71 44 59.39 5.35 5.45 11.16 12.62 20.12 12.18 3.65-4.25 2-7.43 0-10.26-4.77-6.36-9.69-12.59-14.56-18.84z"/><path d="m398.53 605.67c-13.92-8-29.19-13.38-43.94-18.62-3.29-1.16-6.56-2.32-9.84-3.52a136.19 136.19 0 0 1 -54.36-36.34c-3.45-3.78-6.81-7.62-10.18-11.47-2.83-3.23-5.67-6.47-8.54-9.67-11.5-12.75-25.84-26.82-45.07-34.47-5.25-2.1-8.09-5.51-9.79-11.77-3.27-12-6.88-24.14-10.38-35.87q-2.51-8.44-5-16.91a148.21 148.21 0 0 0 -13.09-31.88c-2.52-4.49-6.13-10.16-11.57-14.3-7.93-6-15.26-7.69-22.44-5-9.34 3.54-9.73 13.13-10 18.85q-.72 16.74-1.31 33.5l-.48 12.56v1.59c-.16 3.91-.36 7.81-.56 11.71-.51 9.79-1 19.91-.89 29.87.3 17.88 1.4 38.51 10.84 57.18 13.29 26.32 24 54.12 32.71 77.84 11.48 31.32 31 54.48 59.66 70.83 8.57 4.89 17.46 9.5 26 14 7.4 3.84 15 7.8 22.44 11.92 34.7 19.3 49.18 43.3 45.59 75.71a61.35 61.35 0 0 0 2.29 24.19l.23.85c.85 3 2 7 5.84 7.5 6.21.73 11.28 3.8 16.65 7 4.3 2.61 8.74 5.3 13.86 6.74a131.6 131.6 0 0 0 30.58 4.86c19.71.76 39.72-3 60.55-11.36 10-4 14.58-10.46 15.26-21.57 1.28-20.91 1.76-39.91 1.47-58.07-1.06-64.55-30.15-113.62-86.53-145.88zm68.17 163.39a275.07 275.07 0 0 0 -3.31 28.43c-.46 5.63-.93 11.43-1.62 17.3l-12.15 3.21c-11.26 2.91-22 5.69-32.64 8.51-21.91 5.78-41.82 2.19-60.86-11 2.82-13.33 2.52-27 2-39.93-.79-18.48-7.89-35.59-21.11-50.86-12.69-14.67-26.28-25.09-41.55-31.86-15.89-7-32.35-16.23-50.32-28.1-24.43-16.15-40.39-35.87-48.76-60.31a368.79 368.79 0 0 0 -26-58.59 107.3 107.3 0 0 1 -13.38-56.33c.11-3.12.19-6.25.25-9.37.19-7.63.38-15.53 1.1-23.21 1.06-11.48.31-23-.42-34.16-.47-7.33-1-14.93-.93-22.37 0-.94 0-1.89-.06-2.84-.14-3.59-.26-7 1.87-10.41 5.52 1.25 9.67 5 13.74 12.21a137.28 137.28 0 0 1 12.17 29.82c3.38 12 6.68 24 9.93 35.87l4.26 15.43c-1.94 1-3.78.82-5.75.59a16.56 16.56 0 0 0 -3.2-.19c-6.8.34-12.18 2.62-15.56 6.6-3.28 3.83-4.64 9.21-3.95 15.54a51.62 51.62 0 0 0 7.31 21.66 122.29 122.29 0 0 0 17.33 22.72 607.06 607.06 0 0 1 42.36 47.58c5.72 7.17 13.51 17 28 14.7l1.33-.21.1-1.34c.44-6.14-3-9.72-6.7-12.67-7.93-6.29-14-14.19-19.35-21.79a317.51 317.51 0 0 0 -30.48-36.81c-8.35-8.66-14.33-16.38-18.8-24.3l-.65-1.13c-3-5.29-5.87-10.29-3.41-16.4 5-2.35 9.55-.54 14.77 1.57l1.57.63c22.39 8.84 39.18 25.07 55.82 42.33 2.95 3.06 5.8 6.2 8.65 9.34 2.49 2.73 5 5.45 7.5 8.11 22.1 23.31 46.57 39.14 74.77 48.4 10.49 3.45 20.48 7.79 31.52 12.7 33.27 14.78 59.08 41 76.68 78 10.3 21.57 12.97 46.1 7.93 72.93z"/><path d="m858.87 430.59c0-7-.07-14-.08-21.06v-.73a52.25 52.25 0 0 0 -.63-10c-2-10.25-8.63-14.8-19.15-13.18-8.39 1.29-15.18 5.94-21.35 14.65-6.73 9.47-12.14 20.62-17 35.07q-2.19 6.44-4.41 12.88c-4.39 12.83-8.93 26.09-13 39.28-2 6.6-5.27 10.17-11.23 12.32-10.3 3.73-20 9.5-29.74 17.66a288.29 288.29 0 0 0 -27.64 27.3c-19.77 21.92-42.64 36.36-69.83 44.22-14.55 4.19-33.55 10.2-51.64 19.58-46.17 23.93-75.17 62.59-86.17 114.88-5.49 26.12-4.37 53.45-3.28 79.89l.31 8c.32 8.16 4.23 13.64 12.29 17.25 22.56 10.1 43 15.14 62.09 15.14 18.88 0 36.38-5 53.18-14.83a10.44 10.44 0 0 1 4.4-1c2.31-.21 4.93-.45 7.21-2.62l.3-.36c6.4-10.72 6.3-23 6.19-33.78-.12-11.71 1-26.8 10.85-39.67a100.6 100.6 0 0 1 40.81-32.19c15.7-6.69 30.61-14.23 48.17-23.51 28.09-14.84 47.51-36.23 59.37-65.4 7.8-19.22 18.43-44.37 31.67-68.55 11.76-21.46 17.69-45 18.13-71.95.36-19.79.31-39.88.18-59.29zm-13.43-10.16c-.22 1.35-.43 2.69-.62 4-3.06 21.66-2.6 43.61-2.16 64.83v.74a131.07 131.07 0 0 1 -20.95 75.09c-9.33 14.7-16 31-22.51 46.76l-2.4 5.82c-7.61 18.39-19.37 33.18-35.92 45.19-21.7 15.72-45.62 27-66.17 35.89a118.41 118.41 0 0 0 -50.57 41.52c-15.53 22.28-15.52 47.57-14.28 69.52a44.07 44.07 0 0 0 .54 4.55c.16 1 .3 1.92.41 2.69a5 5 0 0 1 -.21.6c-.11.29-.24.64-.39 1.09-19.06 12.14-38.92 14.79-60.69 8.11-9.91-3-19.81-6-29.88-9.06l-13.58-4.1c-1.26-6.62-1.4-13.44-1.53-20-.14-7.7-.3-15.67-2.23-23.39-4.6-18.54-1.23-36.79 2.22-50.61 10.6-42.4 38-74.92 81.57-96.63 10.82-5.41 23.09-10 38.62-14.43 30.52-8.73 58-26.06 83.94-53a336.68 336.68 0 0 1 36.09-32.81c8.74-6.76 19-12.25 32.16-17.3 4.42-1.68 9.16-3.16 14.43-1.33 2.94 5 .35 9.59-2.37 14.39l-.6 1c-4.55 8.09-10.78 15.78-20.21 25a328.26 328.26 0 0 0 -32.89 36.69c-5.27 6.92-11.78 14.83-20.21 21-3.32 2.43-6.88 5.48-7.14 11v1l.78.53c5.69 3.81 11 1.83 15.45-.61a44.68 44.68 0 0 0 13.13-10.66c12.19-14.88 26.11-28.61 39.57-41.89 2.85-2.82 5.71-5.64 8.55-8.48 7.77-7.72 17.21-18.43 21.33-32.73 2.93-10.15 2.59-17.47-1.05-22.41s-10.32-7.35-20.58-7.57c-.85 0-1.71-.1-3-.22l-1-.09 3.27-10.83c2.27-7.52 4.51-14.91 6.77-22.31 5.06-16.53 9.9-31.35 17.85-45.12 3.41-5.91 7.44-11.84 15.73-14.07 3.19 7.34 1.94 15.11.73 22.64z"/><path d="m612.87 448c5.51-4.07 12-6.1 12.1-12.75.13-5.57-3.69-9.62-11.13-10.68a87.53 87.53 0 0 0 -.97 23.43z"/><path d="m533.23 524.73c29.48 20 62 23.62 96.18 17.89 24-4 42.31-19.11 60.79-33.46 11.5-8.92 19.36-20.48 24.74-34.08 6.61-16.71 12.24-33.72 14.66-51.48 5.18-38.14 2.68-74.46-28.23-102.84-.56-.52-.5-1.7-.83-2.93 1.34-3.58 3-7.36 4.19-11.29 10.49-34.86 7.78-67.92-13.6-98.39-16.11-23-39-37.13-63.9-48.28-8.31-3.72-17.66-4.12-27-3.18-47 4.68-85.42 25.93-117.5 59.82-3.4 3.6-5.62 8.47-10.66 10.54-5.26-3.15-8.93-7.92-13-12.23-33.84-35.81-74.55-51.61-124-43.92-37 5.76-66.13 23.85-87.68 54-23.74 33.23-34.27 87.51-2.16 130a716.82 716.82 0 0 0 82.57 92.1c33.55 31.3 68 61.65 103.66 90.5a155.66 155.66 0 0 0 17 11.64c11 6.71 22 8.38 33.34.12 5.56-4 11.45-7.55 16.5-12.3 7-6.59 14.21-13 21.44-19.51 6.37 1.47 9.74 4.75 13.49 7.28zm109.08-147.24c-3.71 6.25-9.19 4.61-14.52 2.61-3-1.12-5.85-2.7-10-1.77-3.7 7.79-1.56 16.45-1.77 24.84-.06 2.51 2 3.87 4 5.18a66.89 66.89 0 0 1 8.85 6.46c14 13.27 13.43 32.12-1.54 44.18-4.24 3.42-9.17 6-14 9.1-2.25 3.48-1.12 7.74-1.58 11.76s.2 8.53-5.75 10.15c-8.72-4.27-4.1-13.77-7.22-21-4.63-1.1-9.48-2.15-14.27-3.42-8-2.11-13.91-6.86-17.2-14.48-1.51-3.53-1.76-7.45 1.64-10 3.7-2.82 7-.89 9.51 2.21 5 6.33 11.56 8.53 21.08 7.65-.44-11.12-.87-22.22-1.27-32.4-3.45-4.48-8-4.55-11.51-6.48-14.8-8-18-22-8.23-35.66a36.42 36.42 0 0 1 11.1-10.09l12.11-7.33c1.62-9.88 1.62-9.88 6.5-14.46 5.88 2.07 2.18 8.32 5.27 11.95 2.88 2.29 6.86 1.07 10.26 2.22 3.87 1.31 8 2.34 11.46 4.36 6.99 4.01 9.77 9.93 7.08 14.42zm-166.48 73.76c1.51 8.19 5.87 15.42 10.28 22.4 6.36 10.06 13.06 19.91 20.17 30.67-12.85 13.64-26.22 25.42-39.78 37.3-9.16-2.85-16.24-8.78-23.09-14.74-35.63-31-71.29-62-106.49-93.51a511.89 511.89 0 0 1 -78.51-88.16c-23.32-33.39-23.47-66.44-2.54-103.24 30.18-53.07 101.11-64.78 142-46 18.56 8.52 36.34 17.32 49.22 33.93 4.76 6.14 11.19 10.83 17.69 15.2 9.33 6.28 13.52 5.87 21.37-2.54 4.69-5 8.88-10.52 13.64-15.48 26.58-27.64 58.41-45.4 96.59-51.36 14.22-2.22 27.34 0 39.53 7.77 17.8 11.35 36.07 22 46.63 41.61 13.25 24.57 17 50.06 8.88 77-.66 2.2-1.32 4.4-4 6-4.48.22-7.81-3.32-11.58-5.54-28.52-16.75-60.3-20.68-91.71-17.18a144.84 144.84 0 0 0 -66.13 25.29c-24.4 17-36.11 42-43.32 69.69-6.23 23.7-3.18 47.36 1.15 70.89z"/><path d="m586.88 387.93c.42 5.57 3.72 9.77 11.35 10.15-.1-7.93 1.94-15.21.1-23.7-7.06 2.67-12 6.34-11.45 13.55z"/></g></svg>