<svg width="20" height="20" viewBox="0 0 20 20" fill="none" stroke="white" xmlns="http://www.w3.org/2000/svg">
<path d="M10 1.93391C12.6288 1.93391 12.9375 1.94578 13.9769 1.99266C14.9382 2.03578 15.4575 2.19578 15.805 2.33266C16.2663 2.51203 16.5938 2.72328 16.9382 3.06703C17.2825 3.41078 17.4969 3.73891 17.6725 4.20016C17.805 4.54766 17.9694 5.06703 18.0125 6.02828C18.0594 7.06703 18.0713 7.37578 18.0713 10.0052C18.0713 12.6345 18.0594 12.9427 18.0125 13.982C17.9694 14.9433 17.8094 15.4627 17.6725 15.8102C17.4925 16.2714 17.2819 16.5989 16.9382 16.9433C16.5944 17.2877 16.2663 17.502 15.805 17.6777C15.4575 17.8102 14.9382 17.9745 13.9769 18.0177C12.9375 18.0645 12.6294 18.0764 10 18.0764C7.37067 18.0764 7.06255 18.0645 6.02317 18.0177C5.06255 17.9745 4.54255 17.8145 4.19505 17.6777C3.73442 17.4977 3.40567 17.287 3.06192 16.9433C2.71817 16.5995 2.50317 16.2714 2.32755 15.8102C2.19505 15.4627 2.03067 14.9433 1.98755 13.982C1.94067 12.9427 1.9288 12.6345 1.9288 10.0052C1.9288 7.37578 1.94067 7.06766 1.98755 6.02828C2.03067 5.06766 2.19067 4.54766 2.32755 4.20016C2.50692 3.73953 2.71817 3.41078 3.06192 3.06703C3.40567 2.72328 3.7338 2.50828 4.19505 2.33266C4.54255 2.20016 5.06255 2.03578 6.02317 1.99266C7.06192 1.94203 7.37067 1.93391 10 1.93391ZM10 0.160156C7.32817 0.160156 6.99192 0.172031 5.9413 0.218906C4.89442 0.265781 4.17942 0.433906 3.55442 0.675781C2.9063 0.925781 2.3588 1.26578 1.81192 1.81266C1.26505 2.35953 0.928799 2.91016 0.675049 3.55516C0.433174 4.18016 0.265049 4.89516 0.218174 5.94578C0.171299 6.99266 0.159424 7.32891 0.159424 10.0008C0.159424 12.6727 0.171299 13.0089 0.218174 14.0595C0.265049 15.1064 0.433174 15.8214 0.675049 16.4502C0.925049 17.0989 1.26505 17.6458 1.81192 18.1927C2.3588 18.7395 2.90942 19.0758 3.55442 19.3295C4.17942 19.5714 4.89442 19.7395 5.94505 19.7864C6.99567 19.8333 7.32817 19.8452 10.0038 19.8452C12.6794 19.8452 13.0119 19.8333 14.0625 19.7864C15.1094 19.7395 15.8244 19.5714 16.4532 19.3295C17.1019 19.0795 17.6488 18.7395 18.1957 18.1927C18.7425 17.6458 19.0788 17.0952 19.3325 16.4502C19.5744 15.8252 19.7425 15.1102 19.7894 14.0595C19.8363 13.0089 19.8482 12.677 19.8482 10.0008C19.8482 7.32453 19.8363 6.99266 19.7894 5.94203C19.7425 4.89516 19.5744 4.18016 19.3325 3.55141C19.0825 2.90266 18.7425 2.35578 18.1957 1.80891C17.6488 1.26203 17.0982 0.925781 16.4532 0.672031C15.8282 0.430156 15.1132 0.262031 14.0625 0.215156C13.0075 0.172031 12.6719 0.160156 10 0.160156Z" fill="white"/>
<path d="M10 4.9452C8.66916 4.95999 7.39784 5.49906 6.46198 6.44539C5.52611 7.39172 5.00122 8.66895 5.00122 9.99988C5.00122 11.3308 5.52611 12.6081 6.46198 13.5544C7.39784 14.5007 8.66916 15.0398 10 15.0546C12.7894 15.0546 15.0544 12.7889 15.0544 9.99957C15.0544 7.2102 12.7888 4.94457 9.99939 4.94457L10 4.9452ZM10 13.2814C9.12977 13.2814 8.29517 12.9357 7.67982 12.3204C7.06447 11.705 6.71876 10.8704 6.71876 10.0002C6.71876 9.12995 7.06447 8.29536 7.67982 7.68C8.29517 7.06465 9.12977 6.71895 10 6.71895C10.8703 6.71895 11.7049 7.06465 12.3202 7.68C12.9356 8.29536 13.2813 9.12995 13.2813 10.0002C13.2813 10.8704 12.9356 11.705 12.3202 12.3204C11.7049 12.9357 10.8703 13.2814 10 13.2814ZM16.4338 4.74645C16.4338 4.90132 16.4034 5.0547 16.3442 5.19782C16.285 5.34094 16.1982 5.471 16.0888 5.58057C15.9793 5.69015 15.8493 5.77709 15.7063 5.83643C15.5632 5.89578 15.4099 5.92636 15.255 5.92645C15.1001 5.92653 14.9468 5.8961 14.8036 5.83691C14.6605 5.77772 14.5305 5.69091 14.4209 5.58146C14.3113 5.472 14.2244 5.34203 14.165 5.19898C14.1057 5.05592 14.0751 4.90257 14.075 4.7477C14.0748 4.43491 14.1988 4.13483 14.4198 3.91348C14.6408 3.69213 14.9407 3.56763 15.2535 3.56738C15.5662 3.56713 15.8663 3.69115 16.0877 3.91215C16.309 4.13315 16.4335 4.43303 16.4338 4.74582V4.74645Z" fill="white"/>
</svg>
