<svg width="20" height="20" viewBox="0 0 20 20" fill="none" xmlns="http://www.w3.org/2000/svg">
<path d="M9.959 19.918C15.4592 19.918 19.918 15.4592 19.918 9.959C19.918 4.4588 15.4592 0 9.959 0C4.4588 0 0 4.4588 0 9.959C0 15.4592 4.4588 19.918 9.959 19.918Z" fill="black"/>
<path fill-rule="evenodd" clip-rule="evenodd" d="M9.959 1.29281e-06C4.459 1.29281e-06 6.03971e-07 4.459 6.03971e-07 9.959C-0.000696926 11.9626 0.602807 13.9199 1.7317 15.5753C2.8606 17.2306 4.46243 18.5071 6.328 19.238C6.238 18.451 6.164 17.238 6.361 16.377C6.541 15.598 7.525 11.427 7.525 11.427C7.525 11.427 7.23 10.827 7.23 9.951C7.23 8.566 8.033 7.533 9.033 7.533C9.885 7.533 10.295 8.173 10.295 8.934C10.295 9.787 9.755 11.066 9.467 12.254C9.23 13.246 9.967 14.057 10.943 14.057C12.713 14.057 14.073 12.189 14.073 9.5C14.073 7.115 12.361 5.45 9.91 5.45C7.074 5.45 5.41 7.574 5.41 9.77C5.41 10.623 5.738 11.541 6.148 12.041C6.23 12.139 6.238 12.23 6.213 12.328C6.139 12.639 5.967 13.32 5.934 13.459C5.894 13.639 5.787 13.68 5.598 13.59C4.352 13.008 3.574 11.197 3.574 9.73C3.574 6.59 5.852 3.705 10.156 3.705C13.606 3.705 16.296 6.164 16.296 9.459C16.296 12.893 14.131 15.656 11.131 15.656C10.123 15.656 9.172 15.131 8.852 14.508L8.23 16.877C8.008 17.746 7.402 18.827 6.992 19.492C7.926 19.779 8.91 19.934 9.942 19.934C15.442 19.934 19.902 15.475 19.902 9.975C19.9069 8.66639 19.6532 7.36971 19.1557 6.15937C18.6581 4.94904 17.9264 3.84889 17.0026 2.92207C16.0787 1.99525 14.9809 1.26002 13.7722 0.758572C12.5635 0.257123 11.2676 -0.000666168 9.959 1.29281e-06Z" fill="white"/>
</svg>
