<svg
  class="h-[20px] w-auto"
  width="30px"
  height="30px"
  viewBox="0 0 30 30"
  version="1.1"
  xmlns="http://www.w3.org/2000/svg"
  xmlns:xlink="http://www.w3.org/1999/xlink"
>
    <g stroke="none" stroke-width="1" fill="none" fill-rule="evenodd">
      <g fill="#000" fill-rule="nonzero">
        <path
          d="M15,30 C6.71572875,30 -2.55351296e-15,23.2842712 -3.55271368e-15,15 C-4.5519144e-15,6.71572875 6.71572875,-2.10942375e-15 15,-3.55271368e-15 C23.2842712,-4.99600361e-15 30,6.71572875 30,15 C30,23.2842712 23.2842712,30 15,30 Z M15,2 C7.82029825,2 2,7.82029825 2,15 C2,22.1797017 7.82029825,28 15,28 C22.1797017,28 28,22.1797017 28,15 C28,11.5521856 26.6303611,8.24558476 24.1923882,5.80761184 C21.7544152,3.36963892 18.4478144,2 15,2 Z M16,19 L16,18.7 C16.0234003,17.568703 16.6230808,16.5277481 17.59,15.94 C19.353659,15.0024067 20.2928172,13.0183843 19.9,11.06 C19.4609536,8.94150721 17.7259572,7.33502906 15.58,7.06 C14.1670665,6.89496589 12.7507268,7.33958709 11.6856144,8.28253608 C10.620502,9.22548506 10.0074649,10.5774806 10,12 C10,12.5522847 10.4477153,13 11,13 C11.5522847,13 12,12.5522847 12,12 C11.9937672,11.1378605 12.3587552,10.3147127 13.0018743,9.74049921 C13.6449934,9.1662857 14.5040708,8.89651803 15.36,9 C16.6560974,9.17618304 17.6968967,10.1567044 17.95,11.44 C18.03,11.85 18.29,13.1 16.52,14.23 C14.9651906,15.1855675 14.012721,16.8750672 14,18.7 L14,19 C14,19.5522847 14.4477153,20 15,20 C15.5522847,20 16,19.5522847 16,19 Z M15,21 C14.4477153,21 14,21.4477153 14,22 C14,22.5522847 14.4477153,23 15,23 C15.5522847,23 16,22.5522847 16,22 C16,21.4477153 15.5522847,21 15,21 Z"
        ></path>
      </g>
    </g>
  </svg>
