<svg width="20" height="20" viewBox="0 0 20 20" fill="none"
    xmlns="http://www.w3.org/2000/svg">
    <path d="M10 20C15.5228 20 20 15.5228 20 10C20 4.47715 15.5228 0 10 0C4.47715 0 0 4.47715 0 10C0 15.5228 4.47715 20 10 20Z" fill="white"/>
    <path d="M8.17011 15.2751C12.6051 15.2751 15.0301 11.6001 15.0301 8.41506C15.0301 8.31006 15.0301 8.20506 15.0251 8.10506C15.4951 7.76506 15.9051 7.34006 16.2301 6.85506C15.8001 7.04506 15.3351 7.17506 14.8451 7.23506C15.3451 6.93506 15.7251 6.46506 15.9051 5.90006C15.4401 6.17506 14.9251 6.37506 14.3751 6.48506C14.0118 6.09827 13.5311 5.84212 13.0075 5.75633C12.4838 5.67054 11.9465 5.7599 11.4788 6.01056C11.0111 6.26121 10.6391 6.65916 10.4206 7.14271C10.2021 7.62626 10.1492 8.16839 10.2701 8.68506C9.31123 8.63734 8.37314 8.38829 7.51685 7.95412C6.66057 7.51995 5.90528 6.91038 5.30011 6.16506C5.09511 6.52006 4.97511 6.93506 4.97511 7.37506C4.97446 7.77211 5.07233 8.16311 5.25994 8.51303C5.44756 8.86295 5.71906 9.16086 6.05011 9.38006C5.66788 9.36953 5.29389 9.2666 4.96011 9.08006V9.11006C4.96011 10.2801 5.79011 11.2501 6.89511 11.4751C6.53964 11.5718 6.1667 11.5855 5.80511 11.5151C5.95803 11.9944 6.25732 12.4137 6.6609 12.7142C7.06448 13.0146 7.55206 13.181 8.05511 13.1901C7.04389 13.9815 5.75993 14.3394 4.48511 14.1851C5.58108 14.8995 6.86184 15.2783 8.17011 15.2751Z" fill="black"/>
</svg>
